<?xml version="1.0" encoding="UTF-8" standalone="no"?>
<!-- Created with Inkscape (http://www.inkscape.org/) -->

<svg
   xmlns:dc="http://purl.org/dc/elements/1.1/"
   xmlns:cc="http://creativecommons.org/ns#"
   xmlns:rdf="http://www.w3.org/1999/02/22-rdf-syntax-ns#"
   xmlns:svg="http://www.w3.org/2000/svg"
   xmlns="http://www.w3.org/2000/svg"
   xmlns:sodipodi="http://sodipodi.sourceforge.net/DTD/sodipodi-0.dtd"
   xmlns:inkscape="http://www.inkscape.org/namespaces/inkscape"
   version="1.1"
   id="svg78798"
   xml:space="preserve"
   width="800"
   height="800"
   viewBox="0 0 800 800"
   sodipodi:docname="runner-silhouette-4-pdv.svg"
   inkscape:version="0.92.4 (5da689c313, 2019-01-14)"><metadata
     id="metadata78804"><rdf:RDF><cc:Work
         rdf:about=""><dc:format>image/svg+xml</dc:format><dc:type
           rdf:resource="http://purl.org/dc/dcmitype/StillImage" /><dc:title></dc:title></cc:Work></rdf:RDF></metadata><defs
     id="defs78802"><clipPath
       clipPathUnits="userSpaceOnUse"
       id="clipPath78814"><path
         d="M 0,600 H 600 V 0 H 0 Z"
         id="path78812"
         inkscape:connector-curvature="0" /></clipPath></defs><sodipodi:namedview
     pagecolor="#ffffff"
     bordercolor="#666666"
     borderopacity="1"
     objecttolerance="10"
     gridtolerance="10"
     guidetolerance="10"
     inkscape:pageopacity="0"
     inkscape:pageshadow="2"
     inkscape:window-width="797"
     inkscape:window-height="480"
     id="namedview78800"
     showgrid="false"
     inkscape:zoom="0.295"
     inkscape:cx="400"
     inkscape:cy="400"
     inkscape:window-x="0"
     inkscape:window-y="0"
     inkscape:window-maximized="0"
     inkscape:current-layer="g78806" /><g
     id="g78806"
     inkscape:groupmode="layer"
     inkscape:label="runner-silhouette-4-pdv"
     transform="matrix(1.3333333,0,0,-1.3333333,0,800)"><g
       id="g78808"><g
         id="g78810"
         clip-path="url(#clipPath78814)"><path
           d="m 483.797,459.705 1.236,25.688 c -1.723,11.059 -3.959,13.865 -8.023,16.302 -0.553,0.329 -1.383,0.646 -2.435,0.947 l 4.377,-64.416 c 1.438,5.511 3.39,13.521 4.845,21.479"
           style="fill:#0054bd;fill-opacity:1;fill-rule:nonzero;stroke:none"
           id="path78816"
           inkscape:connector-curvature="0" /><path
           d="m 481.507,412.168 -0.986,2.959 0.661,-9.72 z"
           style="fill:#0054bd;fill-opacity:1;fill-rule:nonzero;stroke:none"
           id="path78818"
           inkscape:connector-curvature="0" /><path
           d="m 494.201,393.99 -11.767,15.4 -0.927,2.778 -0.325,-6.761 6.754,-33.164 c 0.605,0.463 1.18,0.926 1.73,1.389 3.233,2.679 4.809,5.358 6.289,8.038 l -0.276,9.636 c -0.345,0.894 -0.823,1.789 -1.478,2.684"
           style="fill:#0051c6;fill-opacity:1;fill-rule:nonzero;stroke:none"
           id="path78820"
           inkscape:connector-curvature="0" /><path
           d="m 485.598,481.34 c -0.183,1.463 -0.369,2.808 -0.565,4.053 l -1.236,-25.688 c 1.498,8.197 2.468,16.338 1.801,21.635"
           style="fill:#0051c6;fill-opacity:1;fill-rule:nonzero;stroke:none"
           id="path78822"
           inkscape:connector-curvature="0" /><path
           d="m 343.871,574.297 c -3.183,-3.359 -5.029,-7.647 -7.612,-11.048 l -4.958,-9.852 c 1.029,6.236 -1.964,-6.483 -4.988,-8.245 l -0.01,-0.016 23.233,-33.74 z"
           style="fill:#003ccc;fill-opacity:1;fill-rule:nonzero;stroke:none"
           id="path78824"
           inkscape:connector-curvature="0" /><path
           d="m 399.793,507.435 c -0.345,0.015 -0.711,0.027 -1.096,0.038 l 0.68,-1.123 z"
           style="fill:#0056c8;fill-opacity:1;fill-rule:nonzero;stroke:none"
           id="path78826"
           inkscape:connector-curvature="0" /><path
           d="m 398.263,555.098 c 2.464,3.756 -5.891,16.693 -14.48,22.632 -5.908,4.083 -17.193,4.52 -17.193,4.52 -5.126,0.887 -8.874,0.005 -12.185,-1.437 l 37.154,-61.52 c 4.784,8.994 8.43,21.845 6.704,35.805"
           style="fill:#0056c8;fill-opacity:1;fill-rule:nonzero;stroke:none"
           id="path78828"
           inkscape:connector-curvature="0" /><path
           d="m 382.848,508.023 c 2.728,2.071 5.914,6.011 8.711,11.27 l -37.154,61.52 c -2.385,-1.039 -4.547,-2.367 -6.831,-3.536 -1.434,-0.845 -2.642,-1.861 -3.703,-2.98 l 5.665,-62.901 z"
           style="fill:#006ad4;fill-opacity:1;fill-rule:nonzero;stroke:none"
           id="path78830"
           inkscape:connector-curvature="0" /><path
           d="m 398.697,507.473 c -2.763,0.073 -6.41,0.031 -9.898,-0.053 l 10.578,-1.07 z"
           style="fill:#006ad4;fill-opacity:1;fill-rule:nonzero;stroke:none"
           id="path78832"
           inkscape:connector-curvature="0" /><path
           d="m 326.303,545.136 -11.525,-17.582 c 0.485,5.565 7.576,15.027 -19.233,8.652 0,0 -8.806,-10.09 -17.087,-16.514 l 71.078,-8.296 z"
           style="fill:#5898c4;fill-opacity:1;fill-rule:nonzero;stroke:none"
           id="path78834"
           inkscape:connector-curvature="0" /><path
           d="m 461.906,504.773 c -8.18,0.915 -17.585,1.443 -23.146,1.443 -10.304,0.312 -32.361,0.016 -35.977,0.92 -0.582,0.145 -1.635,0.241 -2.99,0.299 l -0.416,-1.085 z"
           style="fill:#0063c3;fill-opacity:1;fill-rule:nonzero;stroke:none"
           id="path78836"
           inkscape:connector-curvature="0" /><path
           d="m 481.182,405.407 -0.661,9.72 -0.799,2.398 -2.712,13.577 c 0,0 0.81,2.789 1.942,7.124 l -4.377,64.416 c -0.107,0.031 -0.219,0.061 -0.33,0.092 l -6.943,-57.581 z"
           style="fill:#0066c9;fill-opacity:1;fill-rule:nonzero;stroke:none"
           id="path78838"
           inkscape:connector-curvature="0" /><path
           d="m 349.536,511.396 -71.078,8.296 c -1.107,-0.859 -2.205,-1.653 -3.271,-2.347 -0.881,-0.367 -1.788,-0.751 -2.714,-1.153 l 20.915,-42.018 z"
           style="fill:#6dc9cd;fill-opacity:1;fill-rule:nonzero;stroke:none"
           id="path78840"
           inkscape:connector-curvature="0" /><path
           d="m 474.245,502.734 c -0.513,0.14 -1.071,0.276 -1.672,0.409 l -69.622,-48.736 8.522,-1.226 c 4.471,2.876 8.84,5.329 12.572,7.334 7.467,4.02 33.199,9.165 35.756,7.699 2.783,-7.442 3.092,-14.885 2.405,-22.329 l 5.096,-0.732 z"
           style="fill:#0074ce;fill-opacity:1;fill-rule:nonzero;stroke:none"
           id="path78842"
           inkscape:connector-curvature="0" /><path
           d="m 402.951,454.407 69.622,48.736 c -2.84,0.626 -6.601,1.175 -10.667,1.63 l -62.529,1.577 z"
           style="fill:#007fd1;fill-opacity:1;fill-rule:nonzero;stroke:none"
           id="path78844"
           inkscape:connector-curvature="0" /><path
           d="m 272.473,516.192 c -11.398,-4.927 -25.699,-12.259 -29.894,-18.113 -0.715,-1 -1.361,-2.024 -1.925,-3.059 l 36.436,-14.404 c 4.401,2.831 7.575,5.242 7.575,5.242 0,0 -1.26,-2.794 -3.088,-7.015 l 11.811,-4.669 z"
           style="fill:#abc38b;fill-opacity:1;fill-rule:nonzero;stroke:none"
           id="path78846"
           inkscape:connector-curvature="0" /><path
           d="m 281.577,478.843 c -1.473,-3.405 -3.317,-7.74 -5.17,-12.288 l 16.981,7.619 z"
           style="fill:#c8c46c;fill-opacity:1;fill-rule:nonzero;stroke:none"
           id="path78848"
           inkscape:connector-curvature="0" /><path
           d="m 240.771,479.079 c 4.521,-5.44 10.444,-8.106 17.208,-7.248 5.602,0.722 13.393,5.107 19.111,8.785 l -36.436,14.404 c -3.007,-5.515 -3.688,-11.374 0.117,-15.941"
           style="fill:#c8c46c;fill-opacity:1;fill-rule:nonzero;stroke:none"
           id="path78850"
           inkscape:connector-curvature="0" /><path
           d="m 353.111,457.771 49.84,-3.364 -3.574,51.943 z"
           style="fill:#0097de;fill-opacity:1;fill-rule:nonzero;stroke:none"
           id="path78852"
           inkscape:connector-curvature="0" /><path
           d="m 353.111,457.771 46.266,48.579 -10.578,1.07 c -2.637,-0.062 -5.181,-0.148 -7.188,-0.224 0.4,0.23 0.813,0.505 1.237,0.827 l -33.312,3.373 z"
           style="fill:#008dde;fill-opacity:1;fill-rule:nonzero;stroke:none"
           id="path78854"
           inkscape:connector-curvature="0" /><path
           d="m 293.388,474.174 59.723,-16.403 -3.575,53.625 z"
           style="fill:#169ee2;fill-opacity:1;fill-rule:nonzero;stroke:none"
           id="path78856"
           inkscape:connector-curvature="0" /><path
           d="m 267.809,415.321 c 0.217,-9.698 0.285,-19.467 -1.3,-29.786 l 40.127,14.615 z"
           style="fill:#dae262;fill-opacity:1;fill-rule:nonzero;stroke:none"
           id="path78858"
           inkscape:connector-curvature="0" /><path
           d="m 462.206,445.885 c -0.169,-1.829 -0.396,-3.658 -0.663,-5.488 l 5.759,4.756 z"
           style="fill:#008ad9;fill-opacity:1;fill-rule:nonzero;stroke:none"
           id="path78860"
           inkscape:connector-curvature="0" /><path
           d="m 405.575,449.158 c 1.956,1.42 3.937,2.762 5.898,4.023 l -8.522,1.226 z"
           style="fill:#008ad9;fill-opacity:1;fill-rule:nonzero;stroke:none"
           id="path78862"
           inkscape:connector-curvature="0" /><path
           d="m 306.636,400.15 46.475,57.621 -59.723,16.403 z"
           style="fill:#74e0e0;fill-opacity:1;fill-rule:nonzero;stroke:none"
           id="path78864"
           inkscape:connector-curvature="0" /><path
           d="m 293.388,474.174 -16.981,-7.619 c -4.067,-9.992 -8.174,-21.017 -8.483,-25.493 -0.61,-8.742 -0.306,-17.214 -0.115,-25.741 l 38.827,-15.171 z"
           style="fill:#afdf7b;fill-opacity:1;fill-rule:nonzero;stroke:none"
           id="path78866"
           inkscape:connector-curvature="0" /><path
           d="m 353.111,457.771 36.346,-24.017 c 4.239,5.845 10.059,11.002 16.118,15.404 l -2.624,5.249 z"
           style="fill:#009be2;fill-opacity:1;fill-rule:nonzero;stroke:none"
           id="path78868"
           inkscape:connector-curvature="0" /><path
           d="m 334.396,365.872 49.988,24.473 c -1.771,4.167 -3.133,7.753 -3.328,9.084 -1.339,9.492 -7.514,8.152 6.343,31.221 0.634,1.055 1.321,2.09 2.058,3.104 l -36.346,24.017 z"
           style="fill:#14b4ec;fill-opacity:1;fill-rule:nonzero;stroke:none"
           id="path78870"
           inkscape:connector-curvature="0" /><path
           d="m 334.396,365.872 18.715,91.899 -46.475,-57.621 z"
           style="fill:#67d7ef;fill-opacity:1;fill-rule:nonzero;stroke:none"
           id="path78872"
           inkscape:connector-curvature="0" /><path
           d="m 467.302,445.153 -5.759,-4.756 c -0.497,-3.4 -1.124,-6.799 -1.742,-10.199 l -3.164,-15.385 c 0,0 -0.024,-3.423 -0.239,-7.271 l 24.784,-2.135 z"
           style="fill:#0074d4;fill-opacity:1;fill-rule:nonzero;stroke:none"
           id="path78874"
           inkscape:connector-curvature="0" /><path
           d="m 306.636,400.15 -40.127,-14.615 c -0.122,-0.794 -0.25,-1.593 -0.393,-2.394 -1.156,-6.505 -2.609,-14.026 -3.832,-21.122 l 26.687,-17.597 z"
           style="fill:#dcf07c;fill-opacity:1;fill-rule:nonzero;stroke:none"
           id="path78876"
           inkscape:connector-curvature="0" /><path
           d="m 393.695,322.942 c 0.372,0.622 0.694,1.226 0.951,1.808 6.783,15.4 1.342,43.894 -1.371,47.526 -1.705,2.274 -5.887,11.008 -8.891,18.069 l -49.988,-24.473 z"
           style="fill:#31bded;fill-opacity:1;fill-rule:nonzero;stroke:none"
           id="path78878"
           inkscape:connector-curvature="0" /><path
           d="m 456.398,407.542 c -0.188,-3.342 -0.523,-7.002 -1.117,-9.018 -1.966,-6.609 6.906,-29.427 9.041,-27.151 l 2.728,1.807 c 4.161,5.377 -0.562,12.547 -1.825,19.002 l 9.976,-11.754 -2.275,-9.976 c 1.216,-3.305 3.397,-5.081 8.604,-2.245 2.597,1.345 4.643,2.691 6.406,4.036 l -6.754,33.164 z"
           style="fill:#0069d5;fill-opacity:1;fill-rule:nonzero;stroke:none"
           id="path78880"
           inkscape:connector-curvature="0" /><path
           d="m 375.823,305.097 1.005,0.203 c 3.782,3.171 13.054,11.282 16.867,17.642 l -59.299,42.93 z"
           style="fill:#8bebdb;fill-opacity:1;fill-rule:nonzero;stroke:none"
           id="path78882"
           inkscape:connector-curvature="0" /><path
           d="m 288.971,344.422 45.425,21.45 -27.76,34.278 z"
           style="fill:#b7f3bb;fill-opacity:1;fill-rule:nonzero;stroke:none"
           id="path78884"
           inkscape:connector-curvature="0" /><path
           d="m 262.284,362.019 c -1.262,-7.32 -2.276,-14.186 -2.465,-19.015 l 29.152,1.418 z"
           style="fill:#f2da4a;fill-opacity:1;fill-rule:nonzero;stroke:none"
           id="path78886"
           inkscape:connector-curvature="0" /><path
           d="m 310.211,279.651 24.185,86.221 -45.425,-21.45 z"
           style="fill:#d8f890;fill-opacity:1;fill-rule:nonzero;stroke:none"
           id="path78888"
           inkscape:connector-curvature="0" /><path
           d="m 375.823,305.097 -41.427,60.775 -24.185,-86.221 z"
           style="fill:#c5f5c1;fill-opacity:1;fill-rule:nonzero;stroke:none"
           id="path78890"
           inkscape:connector-curvature="0" /><path
           d="m 260.981,316.858 c 0.337,-5.101 0.615,-8.847 0.615,-8.847 l 1.356,-26.701 c 0,0 0.534,-4.792 1.432,-12.296 l 45.827,10.637 z"
           style="fill:#ffd100;fill-opacity:1;fill-rule:nonzero;stroke:none"
           id="path78892"
           inkscape:connector-curvature="0" /><path
           d="m 288.971,344.422 -29.152,-1.418 c -0.02,-0.528 -0.031,-1.034 -0.031,-1.512 0,-5.501 0.669,-16.705 1.193,-24.634 l 49.23,-37.207 z"
           style="fill:#f9ed2d;fill-opacity:1;fill-rule:nonzero;stroke:none"
           id="path78894"
           inkscape:connector-curvature="0" /><path
           d="m 310.211,279.651 52.803,-5.645 c 0.942,6.815 1.862,11.976 2.674,14.083 3.567,9.339 9.491,15.853 9.491,15.853 0,0 0.193,0.155 0.541,0.439 l 0.103,0.716 z"
           style="fill:#cbf387;fill-opacity:1;fill-rule:nonzero;stroke:none"
           id="path78896"
           inkscape:connector-curvature="0" /><path
           d="m 375.72,304.381 c 0.276,0.227 0.654,0.538 1.108,0.919 l -1.005,-0.203 z"
           style="fill:#96eaa2;fill-opacity:1;fill-rule:nonzero;stroke:none"
           id="path78898"
           inkscape:connector-curvature="0" /><path
           d="m 310.211,279.651 -45.827,-10.637 c 1.434,-11.966 3.793,-30.829 6.388,-48.16 l 19.461,-12.284 z"
           style="fill:#ffce00;fill-opacity:1;fill-rule:nonzero;stroke:none"
           id="path78900"
           inkscape:connector-curvature="0" /><path
           d="m 335.806,202.111 c 0,0 -0.45,-2.132 -0.964,-5.084 l 33.41,-8.644 0.104,3.003 c -3.041,5.58 -12.645,9.823 -12.645,9.823 0,0 3.088,38.503 6.239,64.549 l -31.263,-24.929 z"
           style="fill:#f0d03c;fill-opacity:1;fill-rule:nonzero;stroke:none"
           id="path78902"
           inkscape:connector-curvature="0" /><path
           d="m 324.789,199.629 3.649,39.406 -38.205,-30.465 z"
           style="fill:#f0d03c;fill-opacity:1;fill-rule:nonzero;stroke:none"
           id="path78904"
           inkscape:connector-curvature="0" /><path
           d="m 290.233,208.57 38.205,30.465 1.024,11.054 1.225,-9.26 31.263,24.929 c 0.356,2.931 0.711,5.704 1.064,8.248 l -52.803,5.645 z"
           style="fill:#f6e63a;fill-opacity:1;fill-rule:nonzero;stroke:none"
           id="path78906"
           inkscape:connector-curvature="0" /><path
           d="m 369.087,189.647 c -0.08,0.241 -0.163,0.48 -0.253,0.712 -0.133,0.347 -0.294,0.689 -0.478,1.027 l -0.104,-3.003 z"
           style="fill:#c7df6f;fill-opacity:1;fill-rule:nonzero;stroke:none"
           id="path78908"
           inkscape:connector-curvature="0" /><path
           d="m 270.772,220.854 c 1.059,-7.068 2.156,-13.88 3.247,-19.865 0.212,-1.17 0.43,-2.355 0.651,-3.552 l 15.563,11.133 z"
           style="fill:#feb200;fill-opacity:1;fill-rule:nonzero;stroke:none"
           id="path78910"
           inkscape:connector-curvature="0" /><path
           d="m 369.575,187.922 c -0.14,0.595 -0.304,1.171 -0.488,1.725 l -0.835,-1.264 z"
           style="fill:#d3bf53;fill-opacity:1;fill-rule:nonzero;stroke:none"
           id="path78912"
           inkscape:connector-curvature="0" /><path
           d="m 334.842,197.027 c -0.857,-4.916 -1.893,-12.102 -1.327,-15.491 0.403,-2.422 2.711,-8.507 5.141,-14.499 l 29.596,21.346 z"
           style="fill:#fb9b00;fill-opacity:1;fill-rule:nonzero;stroke:none"
           id="path78914"
           inkscape:connector-curvature="0" /><path
           d="m 289.877,143.595 c 0.953,-1.972 2.547,-4.909 4.539,-8.462 l 38.855,28.021 c -4.27,7.424 -10.138,18.601 -10.138,18.601 l 1.656,17.874 -34.556,8.941 z"
           style="fill:#fb9b00;fill-opacity:1;fill-rule:nonzero;stroke:none"
           id="path78916"
           inkscape:connector-curvature="0" /><path
           d="m 274.67,197.437 c 2.824,-15.224 6.553,-32.617 14.53,-52.342 0.164,-0.407 0.392,-0.911 0.677,-1.5 l 0.356,64.975 z"
           style="fill:#ffa300;fill-opacity:1;fill-rule:nonzero;stroke:none"
           id="path78918"
           inkscape:connector-curvature="0" /><path
           d="m 338.656,167.037 c 3.01,-7.419 6.207,-14.695 6.207,-14.695 0,0 0,-5.44 7.233,-4.536 7.247,0.905 10.442,1.434 14.028,7.731 0.121,0.217 0.3,0.666 0.514,1.308 l 1.614,31.538 z"
           style="fill:#f56500;fill-opacity:1;fill-rule:nonzero;stroke:none"
           id="path78920"
           inkscape:connector-curvature="0" /><path
           d="m 298.208,128.45 39.975,-16.013 c -0.076,0.05 -0.117,0.08 -0.117,0.08 3.742,-1.497 7.466,37.753 -1.807,45.701 -0.776,1.163 -1.822,2.91 -2.988,4.936 l -38.855,-28.021 c 1.147,-2.046 2.426,-4.297 3.792,-6.683"
           style="fill:#f56500;fill-opacity:1;fill-rule:nonzero;stroke:none"
           id="path78922"
           inkscape:connector-curvature="0" /><path
           d="m 344.863,109.806 c -0.026,-0.006 -0.054,-0.008 -0.082,-0.013 l 2.762,-1.105 c -0.996,0.833 -1.916,1.272 -2.68,1.118"
           style="fill:#f56500;fill-opacity:1;fill-rule:nonzero;stroke:none"
           id="path78924"
           inkscape:connector-curvature="0" /><path
           d="m 366.638,156.845 c 1.624,4.867 5.363,20.842 2.937,31.077 l -1.323,0.461 z"
           style="fill:#e07000;fill-opacity:1;fill-rule:nonzero;stroke:none"
           id="path78926"
           inkscape:connector-curvature="0" /><path
           d="m 323.527,81.701 31.872,16.178 c -2.324,4.067 -5.34,8.704 -7.856,10.809 l -2.762,1.105 c -2.08,-0.33 -5.885,2.161 -6.598,2.644 l -39.975,16.013 c 9.29,-16.239 22.565,-38.831 25.319,-46.749"
           style="fill:#fc6300;fill-opacity:1;fill-rule:nonzero;stroke:none"
           id="path78928"
           inkscape:connector-curvature="0" /><path
           d="m 324.038,79.472 c -0.115,-6.15 0.475,-12.976 1.4,-19.679 l 31.148,-0.07 c -1.253,3.525 -2.231,6.696 -2.231,9.306 0,5.44 6.344,18.595 3.63,24.034 -0.654,1.311 -1.551,3.007 -2.586,4.816 L 323.527,81.701 c 0.34,-0.981 0.521,-1.738 0.511,-2.229"
           style="fill:#f23700;fill-opacity:1;fill-rule:nonzero;stroke:none"
           id="path78930"
           inkscape:connector-curvature="0" /><path
           d="m 333.094,23.827 c -0.575,-0.594 5.409,-15.4 11.769,-15.4 3.616,-2.713 10.582,3.397 14.48,6.328 4.723,3.569 3.195,25.267 1.356,32.593 -0.149,0.59 -0.309,1.178 -0.476,1.764 L 331.576,29.438 c 0.906,-3.509 1.518,-5.611 1.518,-5.611"
           style="fill:#e21c00;fill-opacity:1;fill-rule:nonzero;stroke:none"
           id="path78932"
           inkscape:connector-curvature="0" /><path
           d="m 331.576,29.438 28.647,19.674 c -1.07,3.735 -2.471,7.326 -3.637,10.611 l -31.148,0.07 c 1.667,-12.061 4.427,-23.724 6.138,-30.355"
           style="fill:#f24600;fill-opacity:1;fill-rule:nonzero;stroke:none"
           id="path78934"
           inkscape:connector-curvature="0" /></g></g></g></svg>